<?xml version="1.0" encoding="UTF-8" standalone="no"?>
<svg width="40px" height="47px" viewBox="0 0 40 47" version="1.1" xmlns="http://www.w3.org/2000/svg" xmlns:xlink="http://www.w3.org/1999/xlink">
    <!-- Generator: Sketch 42 (36781) - http://www.bohemiancoding.com/sketch -->
    <title>Button/Add Button</title>
    <desc>Created with Sketch.</desc>
    <defs></defs>
    <g id="Style-Guide" stroke="none" stroke-width="1" fill="none" fill-rule="evenodd">
        <g transform="translate(-672.000000, -128.000000)" id="Button/Add-Button">
            <g transform="translate(672.000000, 128.000000)">
                <g id="Add-Button">
                    <g id="Group">
                        <g id="Filled_Icons_1_">
                            <g id="Filled_Icons">
                                <path d="M20,0 C8.95304348,0 0,8.58 0,19.1666667 C0,29.7533333 19.2524781,45.9383054 19.2524781,45.9383054 C19.6653231,46.2949041 20.3471375,46.2868088 20.7596016,45.9277175 C20.7596016,45.9277175 40,29.7533333 40,19.1666667 C40,8.58 31.0469565,0 20,0 Z" id="Shape" fill="#00A799" fill-rule="nonzero"></path>
                                <path d="M29.2307692,18.7692308 L20.7692308,18.7692308 L20.7692308,27.2307692 C20.7692308,27.6553846 20.4246154,28 20,28 C19.5753846,28 19.2307692,27.6553846 19.2307692,27.2307692 L19.2307692,18.7692308 L10.7692308,18.7692308 C10.3446154,18.7692308 10,18.4246154 10,18 C10,17.5753846 10.3446154,17.2307692 10.7692308,17.2307692 L19.2307692,17.2307692 L19.2307692,8.76923077 C19.2307692,8.34461538 19.5753846,8 20,8 C20.4246154,8 20.7692308,8.34461538 20.7692308,8.76923077 L20.7692308,17.2307692 L29.2307692,17.2307692 C29.6553846,17.2307692 30,17.5753846 30,18 C30,18.4246154 29.6553846,18.7692308 29.2307692,18.7692308 Z" id="Path" fill="#FFFFFF"></path>
                            </g>
                        </g>
                    </g>
                </g>
            </g>
        </g>
    </g>
</svg>