<?xml version="1.0" encoding="UTF-8" standalone="no"?>
<svg width="16px" height="16px" viewBox="0 0 16 16" version="1.1" xmlns="http://www.w3.org/2000/svg" xmlns:xlink="http://www.w3.org/1999/xlink">
    <!-- Generator: Sketch 42 (36781) - http://www.bohemiancoding.com/sketch -->
    <title>Button/Close</title>
    <desc>Created with Sketch.</desc>
    <defs></defs>
    <g id="Style-Guide" stroke="none" stroke-width="1" fill="none" fill-rule="evenodd">
        <g transform="translate(-841.000000, -128.000000)" id="Button/Close">
            <g transform="translate(841.000000, 128.000000)">
                <g id="close.3.3.1">
                    <g id="Group">
                        <g id="Filled_Icons_1_" fill-rule="nonzero" fill="#484848">
                            <g id="Filled_Icons">
                                <path d="M15.81248,14.90752 L9.22496,8.32 L15.81184,1.73248 C16.06208,1.48288 16.06208,1.07776 15.81184,0.82752 C15.5616,0.57728 15.15712,0.57728 14.90688,0.82752 L8.32,7.41504 L1.73184,0.82688 C1.4816,0.57728 1.07712,0.57728 0.82688,0.82688 C0.57664,1.07712 0.57664,1.4816 0.82688,1.73184 L7.41504,8.32 L0.82688,14.90816 C0.57728,15.15776 0.57664,15.56352 0.82688,15.81312 C1.07712,16.06336 1.48224,16.06272 1.73184,15.81312 L8.32,9.22496 L14.90752,15.81184 C15.15712,16.06208 15.56224,16.06208 15.81248,15.81184 C16.06272,15.56224 16.06208,15.15712 15.81248,14.90752 Z" id="Shape"></path>
                            </g>
                        </g>
                        <g id="Invisible_Shape" transform="translate(0.640000, 0.640000)">
                            <rect id="Rectangle-path" x="0" y="0" width="15.36" height="15.36"></rect>
                        </g>
                    </g>
                </g>
            </g>
        </g>
    </g>
</svg>