<?xml version="1.0" encoding="UTF-8" standalone="no"?>
<svg width="84px" height="84px" viewBox="0 0 84 84" version="1.1" xmlns="http://www.w3.org/2000/svg" xmlns:xlink="http://www.w3.org/1999/xlink">
    <!-- Generator: Sketch 42 (36781) - http://www.bohemiancoding.com/sketch -->
    <title>Group 2</title>
    <desc>Created with Sketch.</desc>
    <defs></defs>
    <g id="Style-Guide" stroke="none" stroke-width="1" fill="none" fill-rule="evenodd">
        <g transform="translate(-358.000000, -124.000000)" id="Avatar/Default-User">
            <g transform="translate(358.000000, 124.000000)">
                <g id="Group-2">
                    <circle id="Oval" fill="#DDF9F2" cx="42" cy="42" r="42"></circle>
                    <g id="stone-heads.2.3.1" transform="translate(24.000000, 17.000000)" fill-rule="nonzero" fill="#3EE2C1">
                        <g id="Group">
                            <g id="Filled_Icons">
                                <path d="M36.29,6.72 C36.528,3.076 33.636,0 30,0 L21.3,0 C17.826,0 15,2.828 15,6.304 L15,8.61 L1.21,26.386 C0.7,27.042 1.17,28 2,28 L6.468,28 L4.03,37.758 C3.872,38.388 4.348,39 5,39 L9.212,39 L5.836,46.594 C5.546,47.248 6.022,48 6.75,48 L33.178,48 C33.73,48 34.178,47.552 34.178,47 L34.176,38.442 L36.29,6.72 Z M24,16 L18,16 C17.448,16 17,15.552 17,15 C17,14.448 17.448,14 18,14 L24,14 C24.552,14 25,14.448 25,15 C25,15.552 24.552,16 24,16 Z" id="Shape" transform="translate(18.651052, 24.000000) scale(-1, 1) translate(-18.651052, -24.000000) "></path>
                            </g>
                        </g>
                    </g>
                </g>
            </g>
        </g>
    </g>
</svg>