<?xml version="1.0" encoding="UTF-8" standalone="no"?>
<svg width="13px" height="16px" viewBox="0 0 13 16" version="1.1" xmlns="http://www.w3.org/2000/svg" xmlns:xlink="http://www.w3.org/1999/xlink">
    <!-- Generator: Sketch 42 (36781) - http://www.bohemiancoding.com/sketch -->
    <title>Icon/Location</title>
    <desc>Created with Sketch.</desc>
    <defs></defs>
    <g id="Style-Guide" stroke="none" stroke-width="1" fill="none" fill-rule="evenodd">
        <g transform="translate(-363.000000, -1001.000000)" id="Icon/Location">
            <g transform="translate(361.000000, 1001.000000)">
                <g id="location-pin-8.2.3.1">
                    <g id="Group">
                        <g id="Filled_Icons_1_" transform="translate(2.000000, 0.000000)" fill-rule="nonzero" fill="#A5A5A5">
                            <path d="M6.33333333,0.004 C2.72266667,0.004 0,2.86933333 0,6.67066667 C0,11.4526667 5.88733333,15.76 6.138,15.9406667 C6.196,15.9833333 6.26533333,16.004 6.33333333,16.004 C6.40133333,16.004 6.47,15.9833333 6.52866667,15.9406667 C6.77866667,15.76 12.6666667,11.4526667 12.6666667,6.67066667 C12.6666667,2.87 9.944,0.004 6.33333333,0.004 Z M6.5,9.004 C5.12136364,9.004 4,7.88218182 4,6.504 C4,5.12536364 5.12136364,4.004 6.5,4.004 C7.87818182,4.004 9,5.12536364 9,6.504 C9,7.88263636 7.87818182,9.004 6.5,9.004 Z" id="Shape"></path>
                        </g>
                        <g id="invisible_shape">
                            <rect id="Rectangle-path" x="0" y="0" width="16" height="16"></rect>
                        </g>
                    </g>
                </g>
            </g>
        </g>
    </g>
</svg>