<?xml version="1.0" encoding="UTF-8" standalone="no"?>
<svg width="28px" height="40px" viewBox="0 0 28 40" version="1.1" xmlns="http://www.w3.org/2000/svg" xmlns:xlink="http://www.w3.org/1999/xlink">
    <!-- Generator: Sketch 42 (36781) - http://www.bohemiancoding.com/sketch -->
    <title>Icon/North America</title>
    <desc>Created with Sketch.</desc>
    <defs></defs>
    <g id="Style-Guide" stroke="none" stroke-width="1" fill="none" fill-rule="evenodd">
        <g transform="translate(-593.000000, -1061.000000)" id="Icon/North-America">
            <g transform="translate(588.000000, 1061.000000)">
                <g id="statue-of-liberty.3.3.1">
                    <g id="Group">
                        <g id="Outline_Icons" transform="translate(6.666667, 0.000000)" stroke-linecap="round" stroke-width="1.66666667" stroke="#000000" stroke-linejoin="round">
                            <g id="Group">
                                <polygon id="Shape" points="22.5 39.1666667 4.16666667 39.1666667 5.83333333 35.8333333 20.8333333 35.8333333"></polygon>
                                <polyline id="Shape" points="9.16666667 17.5 4.16666667 10.8333333 0.833333333 10.8333333 9.16666667 25.8333333 7.5 35.8333333 19.1666667 35.8333333 17.5 25.8333333"></polyline>
                                <polyline id="Shape" points="9.16666667 17.5 17.5 17.5 20 19.1666667"></polyline>
                                <path d="M15.8333333,13.3333333 C15.8333333,14.715 14.7133333,15.8333333 13.3333333,15.8333333 C11.9533333,15.8333333 10.8333333,14.715 10.8333333,13.3333333 L10.8333333,10.8333333 L15.8333333,10.8333333 L15.8333333,13.3333333 Z" id="Shape"></path>
                                <polygon id="Shape" points="18.3333333 7.5 17.5 10.8333333 9.16666667 10.8333333 8.33333333 7.5 11.6666667 8.33333333 13.3333333 6.66666667 15 8.33333333"></polygon>
                                <rect id="Rectangle-path" x="0" y="7.5" width="5" height="3.33333333"></rect>
                                <path d="M5,4.16666667 C5,5.54833333 3.88,6.66666667 2.5,6.66666667 C1.12,6.66666667 0,5.54833333 0,4.16666667 C0,2.78666667 2.5,0.833333333 2.5,0.833333333 C2.5,0.833333333 5,2.78666667 5,4.16666667 Z" id="Shape"></path>
                                <polygon id="Shape" points="21.6666667 25.8333333 15.8333333 25.8333333 19.1666667 19.1666667 25 19.1666667"></polygon>
                            </g>
                        </g>
                        <g id="invisible_shape">
                            <rect id="Rectangle-path" x="0" y="0" width="40" height="40"></rect>
                        </g>
                    </g>
                </g>
            </g>
        </g>
    </g>
</svg>