<?xml version="1.0" encoding="UTF-8" standalone="no"?>
<svg width="16px" height="16px" viewBox="0 0 16 16" version="1.1" xmlns="http://www.w3.org/2000/svg" xmlns:xlink="http://www.w3.org/1999/xlink">
    <!-- Generator: Sketch 42 (36781) - http://www.bohemiancoding.com/sketch -->
    <title>Icon/Expense (US)</title>
    <desc>Created with Sketch.</desc>
    <defs></defs>
    <g id="Style-Guide" stroke="none" stroke-width="1" fill="none" fill-rule="evenodd">
        <g transform="translate(-398.000000, -1001.000000)" id="Icon/Expense-(US)">
            <g transform="translate(398.000000, 1001.000000)">
                <g id="dollar-sign-circle.1.3.1">
                    <g id="Group">
                        <g id="Filled_Icon" fill-rule="nonzero" fill="#A5A5A5">
                            <g id="Group">
                                <path d="M6.33333333,6 C6.33333333,6.61933333 6.76,7.13666667 7.33333333,7.286 L7.33333333,4.714 C6.76,4.86333333 6.33333333,5.38066667 6.33333333,6 Z" id="Shape"></path>
                                <path d="M8,10.6193333 C8.57333333,10.47 9,9.95266667 9,9.33333333 C9,8.714 8.57333333,8.19666667 8,8.04733333 L8,10.6193333 Z" id="Shape"></path>
                                <path d="M7.66666667,0 C3.43933333,0 0,3.43933333 0,7.66666667 C0,11.894 3.43933333,15.3333333 7.66666667,15.3333333 C11.894,15.3333333 15.3333333,11.894 15.3333333,7.66666667 C15.3333333,3.43933333 11.894,0 7.66666667,0 Z M9.66666667,9.33333333 C9.66666667,10.322 8.944,11.14 8,11.2993333 L8,12 C8,12.184 7.85066667,12.3333333 7.66666667,12.3333333 C7.48266667,12.3333333 7.33333333,12.184 7.33333333,12 L7.33333333,11.2993333 C6.38933333,11.14 5.66666667,10.322 5.66666667,9.33333333 C5.66666667,9.14933333 5.816,9 6,9 C6.184,9 6.33333333,9.14933333 6.33333333,9.33333333 C6.33333333,9.95266667 6.76,10.47 7.33333333,10.6193333 L7.33333333,7.966 C6.38933333,7.80666667 5.66666667,6.98866667 5.66666667,6 C5.66666667,5.01133333 6.38933333,4.19333333 7.33333333,4.034 L7.33333333,3.33333333 C7.33333333,3.14933333 7.48266667,3 7.66666667,3 C7.85066667,3 8,3.14933333 8,3.33333333 L8,4.034 C8.944,4.19333333 9.66666667,5.01133333 9.66666667,6 C9.66666667,6.184 9.51733333,6.33333333 9.33333333,6.33333333 C9.14933333,6.33333333 9,6.184 9,6 C9,5.38066667 8.57333333,4.86333333 8,4.714 L8,7.36733333 C8.944,7.52666667 9.66666667,8.34466667 9.66666667,9.33333333 Z" id="Shape"></path>
                            </g>
                        </g>
                        <g id="Invisible_Shape">
                            <rect id="Rectangle-path" x="0" y="0" width="16" height="16"></rect>
                        </g>
                    </g>
                </g>
            </g>
        </g>
    </g>
</svg>