<?xml version="1.0" encoding="UTF-8" standalone="no"?>
<svg width="24px" height="24px" viewBox="0 0 24 24" version="1.1" xmlns="http://www.w3.org/2000/svg" xmlns:xlink="http://www.w3.org/1999/xlink">
    <!-- Generator: Sketch 42 (36781) - http://www.bohemiancoding.com/sketch -->
    <title>Icon/Food</title>
    <desc>Created with Sketch.</desc>
    <defs></defs>
    <g id="Style-Guide" stroke="none" stroke-width="1" fill="none" fill-rule="evenodd">
        <g transform="translate(-361.000000, -933.000000)" id="Icon/Food">
            <g transform="translate(361.000000, 933.000000)">
                <g id="fast-food.3.3.1">
                    <g id="Group">
                        <g id="Outline_Icons">
                            <g id="Group">
                                <polyline id="Shape" stroke="#F7399B" stroke-linecap="round" stroke-linejoin="round" points="12.246 9.53 12.5 7.5 0.5 7.5 2.5 23.5 7 23.5"></polyline>
                                <g transform="translate(7.000000, 12.000000)" id="Shape" stroke="#F7399B" stroke-linejoin="round">
                                    <path d="M15.5,5.5 L1.5,5.5 L1.5,4.5 C1.5,2.291 3.291,0.5 5.5,0.5 L11.5,0.5 C13.709,0.5 15.5,2.291 15.5,4.5 L15.5,5.5 Z"></path>
                                    <path d="M16.5,7 C16.5,7.828 15.828,8.5 15,8.5 L2,8.5 C1.172,8.5 0.5,7.828 0.5,7 L0.5,7 C0.5,6.172 1.172,5.5 2,5.5 L15,5.5 C15.828,5.5 16.5,6.172 16.5,7 L16.5,7 Z"></path>
                                    <path d="M15.5,9.5 C15.5,10.604 14.605,11.5 13.5,11.5 L3.5,11.5 C2.396,11.5 1.5,10.604 1.5,9.5 L1.5,8.5 L15.5,8.5 L15.5,9.5 Z"></path>
                                </g>
                                <path d="M4.945,18.961 L6.971,1.614 C6.934,1.29 7.057,0.969 7.301,0.751 C7.544,0.535 7.879,0.451 8.197,0.527 L12.5,1.553" id="Shape" stroke="#F7399B" stroke-linecap="round" stroke-linejoin="round"></path>
                                <path d="M17.5,14 C17.224,14 17,14.223 17,14.5 C17,14.775 17.224,15 17.5,15 C17.776,15 18,14.775 18,14.5 C18,14.223 17.776,14 17.5,14 L17.5,14 Z" id="Shape" fill="#F7399B" fill-rule="nonzero"></path>
                                <path d="M13.5,14 C13.224,14 13,14.223 13,14.5 C13,14.775 13.224,15 13.5,15 C13.776,15 14,14.775 14,14.5 C14,14.223 13.776,14 13.5,14 L13.5,14 Z" id="Shape" fill="#F7399B" fill-rule="nonzero"></path>
                                <path d="M15.5,15 C15.224,15 15,15.223 15,15.5 C15,15.775 15.224,16 15.5,16 C15.776,16 16,15.775 16,15.5 C16,15.223 15.776,15 15.5,15 L15.5,15 Z" id="Shape" fill="#F7399B" fill-rule="nonzero"></path>
                            </g>
                        </g>
                        <g id="invisible_shape">
                            <rect id="Rectangle-path" x="0" y="0" width="24" height="24"></rect>
                        </g>
                    </g>
                </g>
            </g>
        </g>
    </g>
</svg>