<?xml version="1.0" encoding="UTF-8" standalone="no"?>
<svg width="39px" height="40px" viewBox="0 0 39 40" version="1.1" xmlns="http://www.w3.org/2000/svg" xmlns:xlink="http://www.w3.org/1999/xlink">
    <!-- Generator: Sketch 42 (36781) - http://www.bohemiancoding.com/sketch -->
    <title>Icon/Asia</title>
    <desc>Created with Sketch.</desc>
    <defs></defs>
    <g id="Style-Guide" stroke="none" stroke-width="1" fill="none" fill-rule="evenodd">
        <g transform="translate(-513.000000, -1061.000000)" id="Icon/Asia">
            <g transform="translate(513.000000, 1061.000000)">
                <g id="shrine-japanese.3.3.1">
                    <g id="Group">
                        <g id="Outline_Icons" stroke-linecap="round" stroke-width="1.66666667" stroke="#000000" stroke-linejoin="round">
                            <g id="Group">
                                <polygon id="Shape" points="35.8333333 35.8333333 2.5 35.8333333 0.833333333 39.1666667 37.5 39.1666667"></polygon>
                                <path d="M27.5,20.8333333 L10.8333333,20.8333333 C6.66666667,20.8333333 4.16666667,27.5 4.16666667,27.5 L34.1666667,27.5 C34.1666667,27.5 32.5,20.8333333 27.5,20.8333333 Z" id="Shape"></path>
                                <path d="M24.1666667,15.8333333 L14.1666667,15.8333333 C10,15.8333333 7.5,10 7.5,10 L30.8333333,10 C30.8333333,10 28.3333333,15.8333333 24.1666667,15.8333333 Z" id="Shape"></path>
                                <path d="M34.1666667,27.5 L37.5,24.1666667" id="Shape"></path>
                                <path d="M4.16666667,27.5 L0.833333333,24.1666667" id="Shape"></path>
                                <path d="M30.8333333,10 L32.5,6.66666667" id="Shape"></path>
                                <path d="M7.5,10 L5.83333333,6.66666667" id="Shape"></path>
                                <path d="M12.5,10 C12.5,7.23833333 15.025,5 19.1666667,5 C23.3083333,5 25.8333333,7.23833333 25.8333333,10" id="Shape"></path>
                                <path d="M19.1666667,5 L19.1666667,0.833333333" id="Shape"></path>
                                <path d="M14.1666667,15.8333333 L14.1666667,20.8333333" id="Shape"></path>
                                <path d="M17.5,15.8333333 L17.5,20.8333333" id="Shape"></path>
                                <path d="M20.8333333,15.8333333 L20.8333333,20.8333333" id="Shape"></path>
                                <path d="M24.1666667,15.8333333 L24.1666667,20.8333333" id="Shape"></path>
                                <path d="M9.16666667,27.5 L9.16666667,35.8333333" id="Shape"></path>
                                <path d="M14.1666667,27.5 L14.1666667,35.8333333" id="Shape"></path>
                                <path d="M19.1666667,27.5 L19.1666667,35.8333333" id="Shape"></path>
                                <path d="M24.1666667,27.5 L24.1666667,35.8333333" id="Shape"></path>
                                <path d="M29.1666667,27.5 L29.1666667,35.8333333" id="Shape"></path>
                            </g>
                        </g>
                        <g id="invisible_shape">
                            <rect id="Rectangle-path" x="0" y="0" width="40" height="40"></rect>
                        </g>
                    </g>
                </g>
            </g>
        </g>
    </g>
</svg>