<?xml version="1.0" encoding="UTF-8" standalone="no"?>
<svg width="24px" height="24px" viewBox="0 0 24 24" version="1.1" xmlns="http://www.w3.org/2000/svg" xmlns:xlink="http://www.w3.org/1999/xlink">
    <!-- Generator: Sketch 42 (36781) - http://www.bohemiancoding.com/sketch -->
    <title>Icon/Fun</title>
    <desc>Created with Sketch.</desc>
    <defs></defs>
    <g id="Style-Guide" stroke="none" stroke-width="1" fill="none" fill-rule="evenodd">
        <g transform="translate(-412.000000, -934.000000)" id="Icon/Fun">
            <g transform="translate(412.000000, 934.000000)">
                <g id="party-popper.3.3.1">
                    <g id="Group">
                        <g id="Outline_Icons" stroke-linejoin="round" stroke="#3EE2C1">
                            <g id="Group">
                                <path d="M7.204,9.533 L0.633,21.842 C0.4,22.28 0.48,22.819 0.83,23.17 C1.182,23.522 1.721,23.602 2.159,23.367 L14.506,16.783" id="Shape"></path>
                                <ellipse id="Oval" stroke-width="1.00006112" transform="translate(11.358183, 12.648271) rotate(45.004051) translate(-11.358183, -12.648271) " cx="11.3581834" cy="12.6482713" rx="5.3763286" ry="2.48115165"></ellipse>
                                <path d="M16.447,12.217 C18.385,10.281 21.527,10.281 23.465,12.217" id="Shape" stroke-linecap="round"></path>
                                <path d="M11.769,7.539 C13.707,5.601 13.707,2.461 11.769,0.521" id="Shape" stroke-linecap="round"></path>
                                <path d="M18.075,8.25 L21.584,7.082" id="Shape" stroke-linecap="round"></path>
                                <path d="M15.736,5.912 L16.906,2.402" id="Shape" stroke-linecap="round"></path>
                                <circle id="Oval" stroke-linecap="round" cx="15.566" cy="8.251" r="0.501"></circle>
                                <circle id="Oval" stroke-linecap="round" cx="8.134" cy="5.326" r="0.5"></circle>
                                <circle id="Oval" stroke-linecap="round" cx="19.908" cy="4.096" r="0.5"></circle>
                                <circle id="Oval" stroke-linecap="round" cx="19.245" cy="14.1" r="0.5"></circle>
                            </g>
                        </g>
                        <g id="invisble_shape">
                            <rect id="Rectangle-path" x="0" y="0" width="24" height="24"></rect>
                        </g>
                    </g>
                </g>
            </g>
        </g>
    </g>
</svg>