<?xml version="1.0" encoding="UTF-8" standalone="no"?>
<svg width="24px" height="24px" viewBox="0 0 24 24" version="1.1" xmlns="http://www.w3.org/2000/svg" xmlns:xlink="http://www.w3.org/1999/xlink">
    <!-- Generator: Sketch 42 (36781) - http://www.bohemiancoding.com/sketch -->
    <title>Icon/Map View</title>
    <desc>Created with Sketch.</desc>
    <defs></defs>
    <g id="Style-Guide" stroke="none" stroke-width="1" fill="none" fill-rule="evenodd">
        <g transform="translate(-613.000000, -857.000000)" id="Icon/Map-View">
            <g transform="translate(613.000000, 857.000000)">
                <g id="map-pin-1.2.3.1">
                    <g id="Group">
                        <g id="Filled_Icons_1_" fill-rule="nonzero" fill="#00A799">
                            <g id="Group">
                                <path d="M0.271,0.062 C0.105,0.148 0,0.319 0,0.506 L0,16.506 C0,16.668 0.078,16.819 0.209,16.913 L7,21.764 L7,4.535 L0.79,0.099 C0.638,-0.009 0.438,-0.025 0.271,0.062 Z" id="Shape"></path>
                                <path d="M19.5,11.006 C20.396,11.006 21.239,11.226 21.987,11.608 C21.994,11.575 22,11.542 22,11.506 L22,5.506 C22,5.344 21.922,5.193 21.79,5.099 L15,0.25 L15,13.354 C15.995,11.938 17.64,11.006 19.5,11.006 Z" id="Shape"></path>
                                <polygon id="Shape" points="8 21.764 14 17.478 14 0.25 8 4.535"></polygon>
                                <path d="M19.5,12.006 C17.019,12.006 15,14.025 15,16.506 C15,18.508 17.839,22.309 19.116,23.827 L19.116,23.827 C19.211,23.941 19.351,24.006 19.5,24.006 C19.649,24.006 19.789,23.941 19.884,23.827 C21.178,22.255 24,18.528 24,16.506 C24,14.025 21.981,12.006 19.5,12.006 Z M19.5,18.506 C18.396,18.506 17.5,17.609 17.5,16.506 C17.5,15.404 18.396,14.506 19.5,14.506 C20.603,14.506 21.5,15.404 21.5,16.506 C21.5,17.609 20.603,18.506 19.5,18.506 Z" id="Shape"></path>
                            </g>
                        </g>
                        <g id="invisible_shape">
                            <rect id="Rectangle-path" x="0" y="0" width="24" height="24"></rect>
                        </g>
                    </g>
                </g>
            </g>
        </g>
    </g>
</svg>