<?xml version="1.0" encoding="UTF-8" standalone="no"?>
<svg width="40px" height="40px" viewBox="0 0 40 40" version="1.1" xmlns="http://www.w3.org/2000/svg" xmlns:xlink="http://www.w3.org/1999/xlink">
    <!-- Generator: Sketch 42 (36781) - http://www.bohemiancoding.com/sketch -->
    <title>Icon/South America</title>
    <desc>Created with Sketch.</desc>
    <defs></defs>
    <g id="Style-Guide" stroke="none" stroke-width="1" fill="none" fill-rule="evenodd">
        <g transform="translate(-663.000000, -1061.000000)" id="Icon/South-America">
            <g transform="translate(663.000000, 1061.000000)">
                <g id="jesus-statue.3.3.1">
                    <g id="Group">
                        <g id="Outline_Icons" transform="translate(1.666667, 0.000000)" stroke-linecap="round" stroke-width="1.66666667" stroke="#000000" stroke-linejoin="round">
                            <g id="Group">
                                <polygon id="Shape" points="28.3333333 39.1666667 8.33333333 39.1666667 10 32.5 26.6666667 32.5"></polygon>
                                <path d="M20,7.5 L21.6666667,4.16666667 C21.6666667,2.32666667 20.1733333,0.833333333 18.3333333,0.833333333 C16.4933333,0.833333333 15,2.32666667 15,4.16666667 L16.6666667,7.5" id="Shape"></path>
                                <path d="M22.5,14.1666667 L22.5,32.5 L14.1666667,32.5 L14.1666667,14.1666667 L7.06,14.1666667 C5.04166667,14.1666667 4.68333333,13.1166667 1.66666667,9.16666667 C12.5,9.16666667 12.5,7.5 18.3333333,7.5 C24.1666667,7.5 24.1666667,9.16666667 35,9.16666667 C31.9883333,13.1083333 31.63,14.1666667 29.6066667,14.1666667 L22.5,14.1666667 Z" id="Shape"></path>
                                <path d="M14.1666667,22.5 C14.1666667,22.5 18.3333333,26.6666667 22.5,26.6666667" id="Shape"></path>
                                <path d="M14.1666667,16.6666667 C14.1666667,16.6666667 16.3966667,18.5266667 19.1216667,19.76" id="Shape"></path>
                                <path d="M10.3483333,8.61 C10.3483333,8.61 15,12.5 19.1666667,12.5" id="Shape"></path>
                                <path d="M33.75,10.8333333 L36.6666667,10.8333333" id="Shape"></path>
                                <path d="M2.91666667,10.8333333 L0,10.8333333" id="Shape"></path>
                                <polyline id="Shape" points="19.1666667 7.5 19.1666667 21.6666667 22.5 21.6666667 22.5 7.86833333"></polyline>
                            </g>
                        </g>
                        <g id="invisible_shape">
                            <rect id="Rectangle-path" x="0" y="0" width="40" height="40"></rect>
                        </g>
                    </g>
                </g>
            </g>
        </g>
    </g>
</svg>