<?xml version="1.0" encoding="UTF-8" standalone="no"?>
<svg width="40px" height="32px" viewBox="0 0 40 32" version="1.1" xmlns="http://www.w3.org/2000/svg" xmlns:xlink="http://www.w3.org/1999/xlink">
    <!-- Generator: Sketch 42 (36781) - http://www.bohemiancoding.com/sketch -->
    <title>Icon/Europe</title>
    <desc>Created with Sketch.</desc>
    <defs></defs>
    <g id="Style-Guide" stroke="none" stroke-width="1" fill="none" fill-rule="evenodd">
        <g transform="translate(-439.000000, -1069.000000)" id="Icon/Europe">
            <g transform="translate(439.000000, 1061.000000)">
                <g id="colosseum.3.3.1">
                    <g id="Group">
                        <g id="Outline_Icons" transform="translate(0.000000, 8.333333)" stroke-linecap="round" stroke-width="1.66666667" stroke="#000000" stroke-linejoin="round">
                            <g id="Group">
                                <polygon id="Shape" points="20.8333333 30.8333333 0.833333333 30.8333333 0.833333333 0.833333333 14.1666667 0.833333333 20.8333333 19.1666667"></polygon>
                                <path d="M17.1966667,9.16666667 L0.833333333,9.16666667" id="Shape"></path>
                                <path d="M20.8333333,19.1666667 L0.833333333,19.1666667" id="Shape"></path>
                                <path d="M9.16666667,26.6666667 C9.16666667,25.2866667 8.04833333,24.1666667 6.66666667,24.1666667 C5.285,24.1666667 4.16666667,25.2866667 4.16666667,26.6666667 L4.16666667,30.8333333 L9.16666667,30.8333333 L9.16666667,26.6666667 Z" id="Shape"></path>
                                <path d="M17.5,26.6666667 C17.5,25.2866667 16.3816667,24.1666667 15,24.1666667 C13.6183333,24.1666667 12.5,25.2866667 12.5,26.6666667 L12.5,30.8333333 L17.5,30.8333333 L17.5,26.6666667 Z" id="Shape"></path>
                                <path d="M9.16666667,15 C9.16666667,13.62 8.04833333,12.5 6.66666667,12.5 C5.285,12.5 4.16666667,13.62 4.16666667,15 L4.16666667,19.1666667 L9.16666667,19.1666667 L9.16666667,15 Z" id="Shape"></path>
                                <path d="M15,12.5 C13.6183333,12.5 12.5,13.62 12.5,15 L12.5,19.1666667" id="Shape"></path>
                                <path d="M24.1666667,19.1666667 L27.5,19.1666667 L27.5,15 C27.5,13.62 26.3816667,12.5 25,12.5 C23.6183333,12.5 22.5,13.62 22.5,15" id="Shape"></path>
                                <path d="M35.8333333,15 C35.8333333,13.62 34.715,12.5 33.3333333,12.5 C31.9516667,12.5 30.8333333,13.62 30.8333333,15 L30.8333333,19.1666667 L35.8333333,19.1666667 L35.8333333,15 Z" id="Shape"></path>
                                <path d="M27.5,30.8333333 L27.5,26.6666667 C27.5,25.2866667 26.3816667,24.1666667 25,24.1666667" id="Shape"></path>
                                <path d="M35.8333333,26.6666667 C35.8333333,25.2866667 34.715,24.1666667 33.3333333,24.1666667 C31.9516667,24.1666667 30.8333333,25.2866667 30.8333333,26.6666667 L30.8333333,30.8333333 L35.8333333,30.8333333 L35.8333333,26.6666667 Z" id="Shape"></path>
                                <polyline id="Shape" points="20.8333333 9.16666667 39.1666667 9.16666667 39.1666667 30.8333333 24.1666667 30.8333333"></polyline>
                                <path d="M4.16666667,4.16666667 L4.16666667,5" id="Shape"></path>
                                <path d="M7.5,4.16666667 L7.5,5" id="Shape"></path>
                                <path d="M10.8333333,4.16666667 L10.8333333,5" id="Shape"></path>
                            </g>
                        </g>
                        <g id="invisible_shape">
                            <rect id="Rectangle-path" x="0" y="0" width="40" height="40"></rect>
                        </g>
                    </g>
                </g>
            </g>
        </g>
    </g>
</svg>