<?xml version="1.0" encoding="UTF-8" standalone="no"?>
<svg width="24px" height="18px" viewBox="0 0 24 18" version="1.1" xmlns="http://www.w3.org/2000/svg" xmlns:xlink="http://www.w3.org/1999/xlink">
    <!-- Generator: Sketch 42 (36781) - http://www.bohemiancoding.com/sketch -->
    <title>Icon/Camera</title>
    <desc>Created with Sketch.</desc>
    <defs></defs>
    <g id="Style-Guide" stroke="none" stroke-width="1" fill="none" fill-rule="evenodd">
        <g transform="translate(-671.000000, -861.000000)" id="Icon/Camera">
            <g transform="translate(667.000000, 853.000000)">
                <g id="camera-sync-2.2.3.1">
                    <g id="Group">
                        <g id="Filled_Icon" transform="translate(4.000000, 8.000000)" fill-rule="nonzero" fill="#A5A5A5">
                            <g id="Group">
                                <path d="M21.3333333,2.708 L17.3533333,2.708 L14.6373333,0.178666667 C14.5133333,0.064 14.3506667,0 14.1826667,0 L9.81866667,0 C9.64933333,0 9.488,0.064 9.364,0.178666667 L6.64666667,2.708 L2.66666667,2.708 C1.24666667,2.708 0,4.048 0,5.57466667 L0,14.6666667 C0,16.1373333 1.196,17.3333333 2.66666667,17.3333333 L21.3333333,17.3333333 C22.804,17.3333333 24,16.1373333 24,14.6666667 L24,5.576 C24,4.048 22.7533333,2.708 21.3333333,2.708 Z M12,13.6986667 C9.62666667,13.6986667 7.69733333,11.768 7.69733333,9.39466667 C7.69733333,7.02133333 9.62666667,5.09066667 12,5.09066667 C14.3733333,5.09066667 16.3026667,7.02133333 16.3026667,9.39466667 C16.3026667,11.768 14.3733333,13.6986667 12,13.6986667 Z M20,7.94 C19.5973333,7.94 19.272,7.61333333 19.272,7.212 C19.272,6.80933333 19.5973333,6.48533333 20,6.48533333 C20.4013333,6.48533333 20.7266667,6.80933333 20.7266667,7.212 C20.7266667,7.61333333 20.4013333,7.94 20,7.94 Z" id="Shape"></path>
                            </g>
                        </g>
                        <g id="Invisible_Shape">
                            <rect id="Rectangle-path" x="0" y="0" width="32" height="32"></rect>
                        </g>
                    </g>
                </g>
            </g>
        </g>
    </g>
</svg>