<?xml version="1.0" encoding="UTF-8" standalone="no"?>
<svg width="24px" height="21px" viewBox="0 0 24 21" version="1.1" xmlns="http://www.w3.org/2000/svg" xmlns:xlink="http://www.w3.org/1999/xlink">
    <!-- Generator: Sketch 42 (36781) - http://www.bohemiancoding.com/sketch -->
    <title>Icon/List View</title>
    <desc>Created with Sketch.</desc>
    <defs></defs>
    <g id="Style-Guide" stroke="none" stroke-width="1" fill="none" fill-rule="evenodd">
        <g transform="translate(-567.000000, -859.000000)" id="Icon/List-View">
            <g transform="translate(567.000000, 857.000000)">
                <g id="Invisible_Shape">
                    <rect id="Rectangle-path" x="0" y="0" width="24" height="24"></rect>
                </g>
                <g id="list-bullets-2.2.3.1">
                    <g id="Group">
                        <g id="Filled_Icon" transform="translate(0.000000, 2.000000)" fill-rule="nonzero" fill="#00A799">
                            <g id="Group">
                                <path d="M8.5,4 L23,4 C23.552,4 24,3.553 24,3 C24,2.447 23.552,2 23,2 L8.5,2 C7.947,2 7.5,2.447 7.5,3 C7.5,3.553 7.947,4 8.5,4 Z" id="Shape"></path>
                                <path d="M23,10 L8.5,10 C7.947,10 7.5,10.447 7.5,11 C7.5,11.553 7.947,12 8.5,12 L23,12 C23.552,12 24,11.553 24,11 C24,10.447 23.552,10 23,10 Z" id="Shape"></path>
                                <path d="M23,18 L8.5,18 C7.947,18 7.5,18.447 7.5,19 C7.5,19.553 7.947,20 8.5,20 L23,20 C23.552,20 24,19.553 24,19 C24,18.447 23.552,18 23,18 Z" id="Shape"></path>
                                <path d="M4.5,0 L0.5,0 C0.224,0 0,0.224 0,0.5 L0,4.5 C0,4.776 0.224,5 0.5,5 L4.5,5 C4.776,5 5,4.776 5,4.5 L5,0.5 C5,0.224 4.776,0 4.5,0 Z" id="Shape"></path>
                                <path d="M4.5,8 L0.5,8 C0.224,8 0,8.224 0,8.5 L0,12.5 C0,12.776 0.224,13 0.5,13 L4.5,13 C4.776,13 5,12.776 5,12.5 L5,8.5 C5,8.224 4.776,8 4.5,8 Z" id="Shape"></path>
                                <path d="M4.5,16 L0.5,16 C0.224,16 0,16.224 0,16.5 L0,20.5 C0,20.776 0.224,21 0.5,21 L4.5,21 C4.776,21 5,20.776 5,20.5 L5,16.5 C5,16.224 4.776,16 4.5,16 Z" id="Shape"></path>
                            </g>
                        </g>
                        <g id="Icon/List">
                            <g id="Invisible_Shape">
                                <rect id="Rectangle-path" x="0" y="0" width="24" height="24"></rect>
                            </g>
                        </g>
                    </g>
                </g>
            </g>
        </g>
    </g>
</svg>