<?xml version="1.0" encoding="UTF-8" standalone="no"?>
<svg width="18px" height="23px" viewBox="0 0 18 23" version="1.1" xmlns="http://www.w3.org/2000/svg" xmlns:xlink="http://www.w3.org/1999/xlink">
    <!-- Generator: Sketch 42 (36781) - http://www.bohemiancoding.com/sketch -->
    <title>Icon/City</title>
    <desc>Created with Sketch.</desc>
    <defs></defs>
    <g id="Style-Guide" stroke="none" stroke-width="1" fill="none" fill-rule="evenodd">
        <g transform="translate(-364.000000, -858.000000)" id="Icon/City">
            <g transform="translate(361.000000, 857.000000)">
                <g id="eiffel-tower.2.3.1">
                    <g id="Group">
                        <g id="Filled_Icons" transform="translate(3.000000, 1.000000)" fill-rule="nonzero" fill="#A5A5A5">
                            <g id="Group">
                                <path d="M13,9 L5,9 L5,11 L5.963,11 C5.619,11.986 5.227,12.99 4.809,14 L7.25,14 L8,11 L10,11 L10.75,14 L13.191,14 C12.773,12.99 12.38,11.986 12.037,11 L13,11 L13,9 Z" id="Shape"></path>
                                <path d="M14.531,17 L17,17 L17,15 L1,15 L1,17 L3.469,17 C2.487,19.02 1.357,21.04 0,23 L5,23 C5,20.791 5.791,19 8,19 L10,19 C12.209,19 13,20.791 13,23 L18,23 C16.643,21.04 15.513,19.02 14.531,17 Z" id="Shape"></path>
                                <path d="M11.088,8 C10.674,6.61 10.303,5.255 10,4 L10,2 L9,0 L8,2 L8,4 C7.697,5.255 7.326,6.61 6.912,8 L11.088,8 Z" id="Shape"></path>
                            </g>
                        </g>
                        <g id="invisible_shape">
                            <rect id="Rectangle-path" x="0" y="0" width="24" height="24"></rect>
                        </g>
                    </g>
                </g>
            </g>
        </g>
    </g>
</svg>