<?xml version="1.0" encoding="UTF-8" standalone="no"?>
<svg width="384px" height="65px" viewBox="0 0 384 65" version="1.1" xmlns="http://www.w3.org/2000/svg" xmlns:xlink="http://www.w3.org/1999/xlink">
    <!-- Generator: Sketch 42 (36781) - http://www.bohemiancoding.com/sketch -->
    <title>Group 2</title>
    <desc>Created with Sketch.</desc>
    <defs></defs>
    <g id="Page-1" stroke="none" stroke-width="1" fill="none" fill-rule="evenodd">
        <g id="Wanderly-Logo-1" transform="translate(-118.000000, -113.000000)">
            <g id="Group-2" transform="translate(118.000000, 113.000000)">
                <g id="Mark" transform="translate(0.000000, 0.772727)" fill-rule="nonzero">
                    <g id="Filled_Icons_1_">
                        <g id="Group" transform="translate(0.000000, -0.000000)">
                            <g id="Group-3" transform="translate(0.000000, -0.000000)">
                                <path d="M0.712429907,0.146391771 C0.277056075,0.377302839 0,0.831162522 0,1.32748861 L0,43.7938918 C0,44.2238641 0.205813084,44.6246408 0.55147352,44.8741309 L18.470405,57.7494135 L18.470405,12.0210598 L2.08451713,0.247249479 C1.68344548,-0.0393987423 1.15571963,-0.0818651455 0.712429907,0.146391771 Z" id="Shape" fill="#3FE4C4"></path>
                                <path d="M61.8806542,0.146391771 C61.4452804,0.377302839 61.1682243,0.831162522 61.1682243,1.32748861 L61.1682243,43.7938918 C61.1682243,44.2238641 61.3740374,44.6246408 61.7196978,44.8741309 L79.6386293,57.7494135 L79.6386293,12.0210598 L63.2527414,0.247249479 C62.8516698,-0.0393987423 62.3239439,-0.0818651455 61.8806542,0.146391771 Z" id="Shape-Copy-2" fill="#1ABC9C" transform="translate(70.403427, 28.874707) scale(-1, 1) translate(-70.403427, -28.874707) "></path>
                                <path d="M39.5794393,0.663537549 L39.5794393,46.3918913 L58.0498442,60.0485283 L58.0498442,14.613751 C58.0498442,14.1864328 39.5794393,0.663537549 39.5794393,0.663537549 Z" id="Shape" fill="#3FE4C4"></path>
                                <polygon id="Shape" fill="#1ABC9C" points="21.1090343 57.7649249 36.94081 46.3918913 36.94081 0.663537549 21.1090343 12.0365711"></polygon>
                            </g>
                        </g>
                    </g>
                </g>
                <path d="M116.981794,48.5464 C116.290591,48.0279974 115.815396,47.3800039 115.556194,46.6024 L106.354594,19.6456 C106.224994,19.2567981 106.160194,18.8896017 106.160194,18.544 C106.160194,17.7231959 106.440992,17.0320028 107.002594,16.4704 C107.564197,15.9087972 108.25539,15.628 109.076194,15.628 C109.680997,15.628 110.231792,15.7899984 110.728594,16.114 C111.225397,16.4380016 111.560194,16.8591974 111.732994,17.3776 L119.314594,42.3256 L126.831394,17.9608 C127.047395,17.2695965 127.446991,16.7080022 128.030194,16.276 C128.613397,15.8439978 129.272191,15.628 130.006594,15.628 C130.740998,15.628 131.399791,15.8439978 131.982994,16.276 C132.566197,16.7080022 132.965793,17.2695965 133.181794,17.9608 L140.698594,42.3256 L148.280194,17.3776 C148.452995,16.8591974 148.787792,16.4380016 149.284594,16.114 C149.781397,15.7899984 150.332191,15.628 150.936994,15.628 C151.757798,15.628 152.448992,15.9087972 153.010594,16.4704 C153.572197,17.0320028 153.852994,17.7231959 153.852994,18.544 C153.852994,18.8896017 153.788195,19.2567981 153.658594,19.6456 L144.456994,46.6024 C144.197793,47.3800039 143.722598,48.0279974 143.031394,48.5464 C142.340191,49.0648026 141.562599,49.324 140.698594,49.324 C139.83459,49.324 139.056998,49.0648026 138.365794,48.5464 C137.674591,48.0279974 137.177796,47.3584041 136.875394,46.5376 L130.006594,25.0888 L123.137794,46.5376 C122.835393,47.3584041 122.338598,48.0279974 121.647394,48.5464 C120.956191,49.0648026 120.178599,49.324 119.314594,49.324 C118.45059,49.324 117.672998,49.0648026 116.981794,48.5464 Z M163.929394,48.4816 C162.309386,47.7039961 161.024199,46.5700075 160.073794,45.0796 C159.12339,43.5891925 158.648194,41.8720097 158.648194,39.928 C158.648194,36.731184 159.911782,34.1824095 162.438994,32.2816 C164.966207,30.3807905 168.67057,29.4304 173.552194,29.4304 L181.392994,29.4304 L181.392994,28.912 C181.392994,26.0607857 180.691001,24.0088063 179.286994,22.756 C177.882987,21.5031937 175.690609,20.8768 172.709794,20.8768 C171.068186,20.8768 169.610201,21.0063987 168.335794,21.2656 C167.061388,21.5248013 165.646602,21.9135974 164.091394,22.432 C163.745793,22.5184004 163.464995,22.5616 163.248994,22.5616 C162.600991,22.5616 162.039397,22.3240024 161.564194,21.8488 C161.088992,21.3735976 160.851394,20.7904035 160.851394,20.0992 C160.851394,18.9327942 161.412989,18.1120024 162.536194,17.6368 C166.208213,16.0815922 169.944975,15.304 173.746594,15.304 C176.727409,15.304 179.243784,15.908794 181.295794,17.1184 C183.347805,18.328006 184.85979,19.8939904 185.831794,21.8164 C186.803799,23.7388096 187.289794,25.8231888 187.289794,28.0696 L187.289794,46.408 C187.289794,47.2288041 186.998197,47.9199972 186.414994,48.4816 C185.831791,49.0432028 185.129798,49.324 184.308994,49.324 C183.48819,49.324 182.796997,49.0432028 182.235394,48.4816 C181.673792,47.9199972 181.392994,47.2288041 181.392994,46.408 L181.392994,44.7232 C178.196178,48.0064164 174.135419,49.648 169.210594,49.648 C167.309785,49.648 165.549402,49.2592039 163.929394,48.4816 Z M176.921794,43.0708 C178.693003,42.1419954 180.183388,40.9864069 181.392994,39.604 L181.392994,34.1608 L174.329794,34.1608 C167.806562,34.1608 164.544994,35.8671829 164.544994,39.28 C164.544994,40.8352078 165.074189,42.0879952 166.132594,43.0384 C167.191,43.9888048 168.951382,44.464 171.413794,44.464 C173.314604,44.464 175.150586,43.9996046 176.921794,43.0708 Z M198.046594,48.4816 C197.484992,47.9199972 197.204194,47.2288041 197.204194,46.408 L197.204194,18.6088 C197.204194,17.7879959 197.484992,17.0860029 198.046594,16.5028 C198.608197,15.9195971 199.29939,15.628 200.120194,15.628 C200.940998,15.628 201.642991,15.9195971 202.226194,16.5028 C202.809397,17.0860029 203.100994,17.7879959 203.100994,18.6088 L203.100994,21.2656 C204.742603,19.4511909 206.513785,18.0040054 208.414594,16.924 C210.315404,15.8439946 212.561781,15.304 215.153794,15.304 C217.529806,15.304 219.592586,15.8655944 221.342194,16.9888 C223.091803,18.1120056 224.43099,19.6455903 225.359794,21.5896 C226.288599,23.5336097 226.752994,25.6719883 226.752994,28.0048 L226.752994,46.408 C226.752994,47.2288041 226.461397,47.9199972 225.878194,48.4816 C225.294991,49.0432028 224.592998,49.324 223.772194,49.324 C222.95139,49.324 222.260197,49.0432028 221.698594,48.4816 C221.136992,47.9199972 220.856194,47.2288041 220.856194,46.408 L220.856194,28.6528 C220.856194,23.3823736 218.480218,20.7472 213.728194,20.7472 C211.568184,20.7472 209.635003,21.3087944 207.928594,22.432 C206.222186,23.5552056 204.613002,25.0671905 203.100994,26.968 L203.100994,46.408 C203.100994,47.2288041 202.809397,47.9199972 202.226194,48.4816 C201.642991,49.0432028 200.940998,49.324 200.120194,49.324 C199.29939,49.324 198.608197,49.0432028 198.046594,48.4816 Z M242.726194,47.6068 C240.328582,46.2459932 238.384602,44.2588131 236.894194,41.6452 C235.403787,39.0315869 234.658594,35.9752175 234.658594,32.476 C234.658594,28.9767825 235.403787,25.9204131 236.894194,23.3068 C238.384602,20.6931869 240.328582,18.7060068 242.726194,17.3452 C245.123806,15.9843932 247.661781,15.304 250.340194,15.304 C254.573816,15.304 258.267379,16.9455836 261.420994,20.2288 L261.420994,4.3528 C261.420994,3.48879568 261.712591,2.77600281 262.295794,2.2144 C262.878997,1.65279719 263.58099,1.372 264.401794,1.372 C265.222598,1.372 265.913792,1.66359708 266.475394,2.2468 C267.036997,2.83000292 267.317794,3.5319959 267.317794,4.3528 L267.317794,46.408 C267.317794,47.2288041 267.036997,47.9199972 266.475394,48.4816 C265.913792,49.0432028 265.222598,49.324 264.401794,49.324 C263.58099,49.324 262.878997,49.0432028 262.295794,48.4816 C261.712591,47.9199972 261.420994,47.2288041 261.420994,46.408 L261.420994,44.7232 C258.267379,48.0064164 254.573816,49.648 250.340194,49.648 C247.661781,49.648 245.123806,48.9676068 242.726194,47.6068 Z M256.787794,42.8116 C258.537403,41.9259956 260.081788,40.7488073 261.420994,39.28 L261.420994,25.672 C260.081788,24.2031927 258.537403,23.0260044 256.787794,22.1404 C255.038186,21.2547956 253.169804,20.812 251.182594,20.812 C247.985778,20.812 245.415404,21.8271898 243.471394,23.8576 C241.527385,25.8880102 240.555394,28.7607814 240.555394,32.476 C240.555394,36.1912186 241.527385,39.0639898 243.471394,41.0944 C245.415404,43.1248102 247.985778,44.14 251.182594,44.14 C253.169804,44.14 255.038186,43.6972044 256.787794,42.8116 Z M279.986194,45.1444 C277.02698,42.141985 275.547394,37.9192272 275.547394,32.476 C275.547394,29.4087847 276.108989,26.579213 277.232194,23.9872 C278.3554,21.395187 280.083383,19.300008 282.416194,17.7016 C284.749006,16.103192 287.621777,15.304 291.034594,15.304 C294.23141,15.304 296.996183,16.0491925 299.328994,17.5396 C301.661806,19.0300075 303.432988,21.0171876 304.642594,23.5012 C305.8522,25.9852124 306.456994,28.6959853 306.456994,31.6336 C306.456994,32.4544041 306.186997,33.1455972 305.646994,33.7072 C305.106992,34.2688028 304.383399,34.5496 303.476194,34.5496 L281.508994,34.5496 C281.854596,37.5736151 282.977785,39.9279916 284.878594,41.6128 C286.779404,43.2976084 289.436177,44.14 292.848994,44.14 C294.663403,44.14 296.250988,43.9672017 297.611794,43.6216 C298.972601,43.2759983 300.300988,42.7792032 301.596994,42.1312 C301.942596,41.9583991 302.331392,41.872 302.763394,41.872 C303.454598,41.872 304.059392,42.1095976 304.577794,42.5848 C305.096197,43.0600024 305.355394,43.6647963 305.355394,44.3992 C305.355394,45.3496048 304.7938,46.1487968 303.670594,46.7968 C301.985786,47.7472048 300.322603,48.4599976 298.680994,48.9352 C297.039386,49.4104024 294.922607,49.648 292.330594,49.648 C287.060168,49.648 282.945409,48.146815 279.986194,45.1444 Z M300.624994,29.7544 C300.495394,27.6375894 299.944599,25.8664071 298.972594,24.4408 C298.00059,23.0151929 296.801802,21.9676033 295.376194,21.298 C293.950587,20.6283967 292.503402,20.2936 291.034594,20.2936 C289.565787,20.2936 288.118602,20.6283967 286.692994,21.298 C285.267387,21.9676033 284.079399,23.0151929 283.128994,24.4408 C282.17859,25.8664071 281.638595,27.6375894 281.508994,29.7544 L300.624994,29.7544 Z M315.075394,48.4816 C314.513792,47.9199972 314.232994,47.2288041 314.232994,46.408 L314.232994,18.6088 C314.232994,17.7879959 314.513792,17.0860029 315.075394,16.5028 C315.636997,15.9195971 316.32819,15.628 317.148994,15.628 C317.969798,15.628 318.671791,15.9195971 319.254994,16.5028 C319.838197,17.0860029 320.129794,17.7879959 320.129794,18.6088 L320.129794,21.3952 C323.15381,17.3343797 326.544976,15.304 330.303394,15.304 L330.627394,15.304 C331.448198,15.304 332.128592,15.5847972 332.668594,16.1464 C333.208597,16.7080028 333.478594,17.3991959 333.478594,18.22 C333.478594,19.0408041 333.197797,19.7103974 332.636194,20.2288 C332.074592,20.7472026 331.361799,21.0064 330.497794,21.0064 L330.173794,21.0064 C328.100184,21.0064 326.199403,21.5139949 324.471394,22.5292 C322.743386,23.5444051 321.2962,24.9375911 320.129794,26.7088 L320.129794,46.408 C320.129794,47.2288041 319.838197,47.9199972 319.254994,48.4816 C318.671791,49.0432028 317.969798,49.324 317.148994,49.324 C316.32819,49.324 315.636997,49.0432028 315.075394,48.4816 Z M339.893794,48.4816 C339.332192,47.9199972 339.051394,47.2288041 339.051394,46.408 L339.051394,4.3528 C339.051394,3.5319959 339.332192,2.83000292 339.893794,2.2468 C340.455397,1.66359708 341.14659,1.372 341.967394,1.372 C342.831399,1.372 343.544192,1.65279719 344.105794,2.2144 C344.667397,2.77600281 344.948194,3.48879568 344.948194,4.3528 L344.948194,46.408 C344.948194,47.2288041 344.656597,47.9199972 344.073394,48.4816 C343.490191,49.0432028 342.788198,49.324 341.967394,49.324 C341.14659,49.324 340.455397,49.0432028 339.893794,48.4816 Z M360.597394,63.3856 C360.057392,62.8239972 359.787394,62.1544039 359.787394,61.3768 C359.787394,61.0311983 359.852194,60.6856017 359.981794,60.34 L364.193794,49.5184 L352.011394,19.84 C351.838594,19.4079978 351.752194,18.9976019 351.752194,18.6088 C351.752194,17.7879959 352.032992,17.0860029 352.594594,16.5028 C353.156197,15.9195971 353.84739,15.628 354.668194,15.628 C355.272997,15.628 355.823792,15.8007983 356.320594,16.1464 C356.817397,16.4920017 357.173793,16.9239974 357.389794,17.4424 L367.368994,42.196 L377.542594,17.572 C378.104197,16.2759935 379.011388,15.628 380.264194,15.628 C381.084998,15.628 381.776192,15.9195971 382.337794,16.5028 C382.899397,17.0860029 383.180194,17.7879959 383.180194,18.6088 C383.180194,18.9976019 383.115395,19.3647983 382.985794,19.7104 L365.295394,62.2192 C364.690591,63.5584067 363.7834,64.228 362.573794,64.228 C361.796191,64.228 361.137397,63.9472028 360.597394,63.3856 Z" id="wanderly" fill="#404041"></path>
            </g>
        </g>
    </g>
</svg>